<?xml version="1.0" encoding="UTF-8"?>
<svg xmlns="http://www.w3.org/2000/svg" xmlns:xlink="http://www.w3.org/1999/xlink" xmlns:svgjs="http://svgjs.com/svgjs" version="1.1" width="512" height="512" x="0" y="0" viewBox="0 0 96.264 96.264" style="enable-background:new 0 0 512 512" xml:space="preserve" class="">
  <g>
<g xmlns="http://www.w3.org/2000/svg">
	<path d="M94.264,17.132H2c-1.104,0-2,0.896-2,2v58c0,1.104,0.896,2,2,2h92.264c1.104,0,2-0.896,2-2v-58   C96.264,18.028,95.367,17.132,94.264,17.132z M90.929,34.825c0,0.548-0.299,1.052-0.778,1.315l-41.29,22.61   c-0.225,0.123-0.473,0.185-0.721,0.185s-0.496-0.062-0.721-0.184L6.115,36.141c-0.481-0.263-0.78-0.768-0.78-1.316v-7.55   c0-0.525,0.274-1.011,0.724-1.283c0.447-0.271,1.008-0.29,1.472-0.046l39.684,20.762c0.552,0.29,1.301,0.289,1.855-0.001   l39.664-20.76c0.463-0.244,1.021-0.226,1.472,0.046c0.448,0.272,0.724,0.758,0.724,1.283L90.929,34.825L90.929,34.825z" fill="#b6249e" data-original="#000000" style="" class=""></path>
</g>
<g xmlns="http://www.w3.org/2000/svg">
</g>
<g xmlns="http://www.w3.org/2000/svg">
</g>
<g xmlns="http://www.w3.org/2000/svg">
</g>
<g xmlns="http://www.w3.org/2000/svg">
</g>
<g xmlns="http://www.w3.org/2000/svg">
</g>
<g xmlns="http://www.w3.org/2000/svg">
</g>
<g xmlns="http://www.w3.org/2000/svg">
</g>
<g xmlns="http://www.w3.org/2000/svg">
</g>
<g xmlns="http://www.w3.org/2000/svg">
</g>
<g xmlns="http://www.w3.org/2000/svg">
</g>
<g xmlns="http://www.w3.org/2000/svg">
</g>
<g xmlns="http://www.w3.org/2000/svg">
</g>
<g xmlns="http://www.w3.org/2000/svg">
</g>
<g xmlns="http://www.w3.org/2000/svg">
</g>
<g xmlns="http://www.w3.org/2000/svg">
</g>
</g>
</svg>
