<?xml version="1.0"?>
<svg xmlns="http://www.w3.org/2000/svg" enable-background="new 0 0 24 24" height="512px" viewBox="0 0 24 24" width="512px"><path d="m22.437 6.554-9.958-5.432c-.299-.163-.659-.163-.958 0l-9.957 5.432c-.965.525-1.564 1.534-1.564 2.634v10.812c0 1.654 1.346 3 3 3h18c1.654 0 3-1.346 3-3v-10.812c0-1.1-.599-2.109-1.563-2.634zm-19.916 1.756 9.479-5.171 9.479 5.17c.321.176.521.512.521.879v1.249l-9.414 4.917c-.361.187-.811.187-1.169.002l-9.417-4.919v-1.249c0-.367.2-.703.521-.878z" fill="#116466"/></svg>
